HIERARCHY
ROOT Hips
{
	OFFSET 0.00000 0.00000 0.00000
	CHANNELS 6 Xposition Yposition Zposition Zrotation Yrotation Xrotation 
	JOINT LHipJoint
	{
		OFFSET 0 0 0
		CHANNELS 3 Zrotation Yrotation Xrotation
		JOINT LeftHip
		{
			OFFSET 1.58895 -1.83665 0.71753
			CHANNELS 3 Zrotation Yrotation Xrotation
			JOINT LeftKnee
			{
				OFFSET 2.50528 -6.88321 0.00000
				CHANNELS 3 Zrotation Yrotation Xrotation
				JOINT LeftAnkle
				{
					OFFSET 2.63244 -7.23257 0.00000
					CHANNELS 3 Zrotation Yrotation Xrotation
					JOINT LeftToe
					{
						OFFSET 0.23691 -0.65090 1.72750
						CHANNELS 3 Zrotation Yrotation Xrotation
						End Site
						{
							OFFSET 0.00000 -0.00000 0.92561
						}
					}
				}
			}
		}
	}
	JOINT RHipJoint
	{
		OFFSET 0 0 0
		CHANNELS 3 Zrotation Yrotation Xrotation
		JOINT RightHip
		{
			OFFSET -1.51435 -1.83665 0.71753
			CHANNELS 3 Zrotation Yrotation Xrotation
			JOINT RightKnee
			{
				OFFSET -2.54551 -6.99375 0.00000
				CHANNELS 3 Zrotation Yrotation Xrotation
				JOINT RightAnkle
				{
					OFFSET -2.66027 -7.30903 0.00000
					CHANNELS 3 Zrotation Yrotation Xrotation
					JOINT RightToe
					{
						OFFSET -0.22981 -0.63138 2.03959
						CHANNELS 3 Zrotation Yrotation Xrotation
						End Site
						{
							OFFSET -0.00000 -0.00000 1.07060
						}
					}
				}
			}
		}
	}
	JOINT lowerback
	{
		OFFSET 0 0 0
		CHANNELS 3 Zrotation Yrotation Xrotation
		JOINT Chest
		{
			OFFSET -0.02651 1.86275 -0.11152
			CHANNELS 3 Zrotation Yrotation Xrotation
			JOINT Chest2
			{
				OFFSET 0.01019 1.86224 0.04087
				CHANNELS 3 Zrotation Yrotation Xrotation
				JOINT lowerneck
				{
					OFFSET 0 0 0
					CHANNELS 3 Zrotation Yrotation Xrotation
					JOINT Neck
					{
						OFFSET -0.01926 1.80512 0.08867
						CHANNELS 3 Zrotation Yrotation Xrotation
						JOINT Head
						{
							OFFSET 0.05516 1.76451 -0.38475
							CHANNELS 3 Zrotation Yrotation Xrotation
							End Site
							{
								OFFSET 0.01592 1.82587 -0.14001
							}
						}
					}
				}
				JOINT LeftCollar
				{
					OFFSET 0 0 0
					CHANNELS 3 Zrotation Yrotation Xrotation
					JOINT LeftShoulder
					{
						OFFSET 3.47116 1.51376 0.14491
CHANNELS 3 Zrotation Xrotation Yrotation
						JOINT LeftElbow
						{
OFFSET 0 -4.780950 0.000000
CHANNELS 3 Zrotation Xrotation Yrotation
							JOINT LeftWrist
							{
OFFSET 0 -3.586150 -0.000000
CHANNELS 3 Zrotation Xrotation Yrotation
								JOINT lhand
								{
									OFFSET 0 0 0
CHANNELS 3 Zrotation Xrotation Yrotation
									JOINT LFingers
									{
OFFSET 0 -0.659810 0.000000
CHANNELS 3 Zrotation Xrotation Yrotation
										End Site
										{
OFFSET 0 -0.531960 0.000000
										}
									}
								}
								JOINT LThumb
								{
OFFSET 0 0.000000 0.000000
CHANNELS 3 Zrotation Xrotation Yrotation
									End Site
									{
OFFSET 0 -0.540080 0.540080
									}
								}
							}
						}
					}
				}
				JOINT RightCollar
				{
					OFFSET 0 0 0
					CHANNELS 3 Zrotation Yrotation Xrotation
					JOINT RightShoulder
					{
						OFFSET -3.31725 1.61216 0.35156
CHANNELS 3 Zrotation Xrotation Yrotation
						JOINT RightElbow
						{
OFFSET 0 -4.489130 0.000000
CHANNELS 3 Zrotation Xrotation Yrotation
							JOINT RightWrist
							{
OFFSET 0 -3.705100 0.000000
CHANNELS 3 Zrotation Xrotation Yrotation
								JOINT rhand
								{
									OFFSET 0 0 0
CHANNELS 3 Zrotation Xrotation Yrotation
									JOINT RFingers
									{
OFFSET 0 -0.449140 0.000000
CHANNELS 3 Zrotation Xrotation Yrotation
										End Site
										{
OFFSET 0 -0.362110 0.000000
										}
									}
								}
								JOINT RThumb
								{
OFFSET 0 0.000000 0.000000
CHANNELS 3 Zrotation Xrotation Yrotation
									End Site
									{
OFFSET 0 -0.367630 0.367630
									}
								}
							}
						}
					}
				}
			}
		}
	}
}
MOTION
Frames: 10
Frame Time: 0.008333333333333333
-0.627603 18.660801 5.675992 -4.087752 -0.686477 -1.430174 0.000000 0.000000 0.000000 -10.639861 -6.190244 -1.239679 1.591201 7.957003 22.583509 1.584110 2.907152 -24.973446 8.388773 -16.397881 -53.951104 0.000000 0.000000 0.000000 0.000000 0.000000 0.000000 0.000000 0.000000 0.000000 0.000000 0.000000 0.000000 0.000000 0.000000 0.000000 0.727993 2.412691 1.749743 -0.338039 3.229146 -0.415306 -0.844715 1.606132 -1.345160 3.858556 1.839996 -14.509658 -2.048477 2.397921 34.237700 -1.114463 1.283245 14.211367 0.000000 0.000000 0.000000 -1.838882 -2.686338 -54.053236 117.520205 -56.935311 83.587950 19.407872 -82.870402 23.020206 0.000000 0.000000 0.000000 -7.125000 0.000000 0.000000 -5.999398 5.840805 -5.388027 0.000000 0.000000 0.000000 -19.778496 -15.335399 68.889106 -117.037459 -57.049033 -83.183082 -22.621788 32.969820 40.491094 0.000000 0.000000 0.000000 7.125000 0.000000 0.000000 21.231270 71.755412 -13.700345
-0.629104 18.661403 5.671380 -4.118725 -0.732841 -1.414430 0.000000 0.000000 0.000000 -10.616734 -6.276405 -1.226942 1.591903 7.958705 22.588616 1.590308 2.998281 -25.061140 8.372571 -16.386580 -53.893799 0.000000 0.000000 0.000000 0.000000 0.000000 0.000000 0.000000 0.000000 0.000000 0.000000 0.000000 0.000000 0.000000 0.000000 0.000000 0.544324 2.347454 1.357063 -0.181780 3.137235 -0.120052 -0.554083 1.565269 -0.843181 3.832605 1.897420 -14.723569 -2.214780 2.530443 33.937791 -1.152382 1.310105 14.131132 0.000000 0.000000 0.000000 -2.067303 -3.127091 -53.594829 116.983794 -57.061502 83.138203 19.449130 -83.051911 22.603283 0.000000 0.000000 0.000000 -7.125000 0.000000 0.000000 -5.939780 6.264776 -5.285288 0.000000 0.000000 0.000000 -20.074477 -16.112951 69.011457 -116.954927 -57.068249 -83.113917 -22.072941 32.857080 40.847936 0.000000 0.000000 0.000000 7.125000 0.000000 0.000000 22.535877 71.882362 -14.628642
-0.629896 18.661901 5.667372 -4.083364 -0.740655 -1.420415 0.000000 0.000000 0.000000 -10.663886 -6.316894 -1.215622 1.592397 7.959693 22.591680 1.591737 3.034287 -25.088433 8.367062 -16.382713 -53.874373 0.000000 0.000000 0.000000 0.000000 0.000000 0.000000 0.000000 0.000000 0.000000 0.000000 0.000000 0.000000 0.000000 0.000000 0.000000 0.468921 2.338105 1.429740 -0.157993 3.124130 -0.110373 -0.490735 1.558967 -0.879467 3.854047 1.901461 -14.697223 -2.311067 2.559125 33.735678 -1.188937 1.311128 14.037347 0.000000 0.000000 0.000000 -2.087351 -3.024544 -53.341468 116.724739 -57.121399 82.920668 19.056753 -83.232857 22.201513 0.000000 0.000000 0.000000 -7.125000 0.000000 0.000000 -6.154878 6.738174 -5.422361 0.000000 0.000000 0.000000 -19.948601 -16.242878 68.841725 -117.342045 -56.977585 -83.438657 -21.381396 31.889779 41.134075 0.000000 0.000000 0.000000 7.125000 0.000000 0.000000 23.908971 71.893854 -15.555078
-0.629393 18.662006 5.664061 -4.019823 -0.711311 -1.433954 0.000000 0.000000 0.000000 -10.733160 -6.279730 -1.230788 1.591994 7.958885 22.589252 1.584245 3.031947 -25.032138 8.386397 -16.396169 -53.942746 0.000000 0.000000 0.000000 0.000000 0.000000 0.000000 0.000000 0.000000 0.000000 0.000000 0.000000 0.000000 0.000000 0.000000 0.000000 0.388113 2.314663 1.506287 -0.156988 3.091683 -0.095110 -0.447089 1.543042 -0.911303 3.919110 1.908425 -14.664077 -2.426134 2.585484 33.541124 -1.241065 1.314292 13.947004 0.000000 0.000000 0.000000 -2.045227 -2.861871 -53.231017 116.779847 -57.108718 82.966874 18.931609 -83.238697 22.073419 0.000000 0.000000 0.000000 -7.125000 0.000000 0.000000 -6.224173 6.888565 -5.465824 0.000000 0.000000 0.000000 -19.696396 -16.311709 68.568241 -117.854880 -56.854891 -83.868375 -20.859953 30.730865 41.226252 0.000000 0.000000 0.000000 7.125000 0.000000 0.000000 24.723290 71.794033 -16.050503
-0.628805 18.662508 5.660762 -4.030673 -0.686702 -1.421340 0.000000 0.000000 0.000000 -10.703605 -6.214229 -1.289807 1.591509 7.957621 22.585268 1.579594 2.967257 -24.967176 8.394430 -16.401881 -53.971399 0.000000 0.000000 0.000000 0.000000 0.000000 0.000000 0.000000 0.000000 0.000000 0.000000 0.000000 0.000000 0.000000 0.000000 0.000000 0.372724 2.294430 1.548176 -0.139189 3.064684 -0.078964 -0.421150 1.529589 -0.920317 3.927894 1.884677 -14.644177 -2.444796 2.549244 33.379780 -1.254620 1.296318 13.869701 0.000000 0.000000 0.000000 -1.987203 -2.723065 -53.250274 117.032548 -57.050193 83.178994 18.862291 -83.160704 22.159822 0.000000 0.000000 0.000000 -7.125000 0.000000 0.000000 -6.274133 6.809623 -5.519951 0.000000 0.000000 0.000000 -19.456172 -16.318684 68.287211 -118.596661 -56.672359 -84.488683 -21.017020 30.393690 41.235766 0.000000 0.000000 0.000000 7.125000 0.000000 0.000000 24.544867 71.856150 -15.963298
-0.629087 18.663004 5.658272 -4.061616 -0.673465 -1.404034 0.000000 0.000000 0.000000 -10.651864 -6.191771 -1.342614 1.592129 7.959072 22.589913 1.579307 2.899734 -24.933977 8.382876 -16.393803 -53.930492 0.000000 0.000000 0.000000 0.000000 0.000000 0.000000 0.000000 0.000000 0.000000 0.000000 0.000000 0.000000 0.000000 0.000000 0.000000 0.401124 2.283366 1.593484 -0.145797 3.050595 -0.076791 -0.445314 1.522340 -0.941770 3.893148 1.849320 -14.574929 -2.369285 2.477772 33.198044 -1.228521 1.270551 13.769240 0.000000 0.000000 0.000000 -1.914217 -2.654932 -53.309530 117.261105 -56.996709 83.370801 18.703948 -83.057464 22.172863 0.000000 0.000000 0.000000 -7.125000 0.000000 0.000000 -6.374773 6.819347 -5.608449 0.000000 0.000000 0.000000 -19.248771 -16.167063 67.926286 -119.682225 -56.393824 -85.394312 -21.614108 30.669748 41.010541 0.000000 0.000000 0.000000 7.125000 0.000000 0.000000 23.399257 71.866650 -15.198960
-0.628361 18.663204 5.656783 -4.057369 -0.660813 -1.388873 0.000000 0.000000 0.000000 -10.671530 -6.294728 -1.338104 1.593737 7.962987 22.601567 1.585176 2.945988 -24.998994 8.359805 -16.377622 -53.848498 0.000000 0.000000 0.000000 0.000000 0.000000 0.000000 0.000000 0.000000 0.000000 0.000000 0.000000 0.000000 0.000000 0.000000 0.000000 0.434689 2.287243 1.646180 -0.188424 3.056162 -0.087213 -0.510352 1.524728 -0.977845 3.805456 1.789313 -14.456979 -2.197031 2.354735 33.010544 -1.162995 1.228953 13.651866 0.000000 0.000000 0.000000 -1.857116 -2.641299 -53.415161 117.393394 -56.965480 83.481752 18.680238 -83.132852 22.093089 0.000000 0.000000 0.000000 -7.125000 0.000000 0.000000 -6.383896 6.904876 -5.605921 0.000000 0.000000 0.000000 -19.125509 -15.819128 67.510337 -121.115096 -56.005057 -86.584993 -22.647532 31.101332 40.651724 0.000000 0.000000 0.000000 7.125000 0.000000 0.000000 21.464779 71.906650 -13.925328
-0.626562 18.663425 5.655987 -4.070266 -0.656622 -1.345625 0.000000 0.000000 0.000000 -10.681191 -6.428295 -1.344167 1.595448 7.967015 22.613953 1.593225 3.022413 -25.094472 8.341985 -16.365090 -53.785245 0.000000 0.000000 0.000000 0.000000 0.000000 0.000000 0.000000 0.000000 0.000000 0.000000 0.000000 0.000000 0.000000 0.000000 0.000000 0.442692 2.302968 1.648510 -0.188739 3.077351 -0.096640 -0.516083 1.535183 -0.988079 3.585582 1.683365 -14.367625 -1.932948 2.172186 32.881354 -1.048024 1.157319 13.561665 0.000000 0.000000 0.000000 -1.895182 -2.675074 -53.527525 117.314832 -56.984047 83.415826 18.702840 -83.247607 22.207764 0.000000 0.000000 0.000000 -7.125000 0.000000 0.000000 -6.377933 6.783517 -5.615705 0.000000 0.000000 0.000000 -19.184585 -15.394967 67.096078 -122.798436 -55.516498 -87.976624 -23.688838 31.411799 40.523310 0.000000 0.000000 0.000000 7.125000 0.000000 0.000000 19.888496 72.150144 -12.982857
-0.625091 18.664448 5.655452 -4.100747 -0.644733 -1.287187 0.000000 0.000000 0.000000 -10.652794 -6.491623 -1.398583 1.597351 7.971619 22.628055 1.598211 3.033556 -25.136524 8.341170 -16.364538 -53.782288 0.000000 0.000000 0.000000 0.000000 0.000000 0.000000 0.000000 0.000000 0.000000 0.000000 0.000000 0.000000 0.000000 0.000000 0.000000 0.421850 2.313167 1.597996 -0.158527 3.090671 -0.090267 -0.471405 1.542144 -0.955884 3.346904 1.569699 -14.252797 -1.776066 2.020414 32.677882 -0.967251 1.081980 13.437151 0.000000 0.000000 0.000000 -1.943769 -2.766404 -53.582197 117.068124 -57.041924 83.208880 18.821798 -83.419523 22.479919 0.000000 0.000000 0.000000 -7.125000 0.000000 0.000000 -6.323412 6.486001 -5.603721 0.000000 0.000000 0.000000 -19.371433 -14.963821 66.688987 -124.507093 -54.983675 -89.380671 -24.344135 31.685614 40.575108 0.000000 0.000000 0.000000 7.125000 0.000000 0.000000 19.099576 72.423477 -12.569757
-0.624790 18.666141 5.653724 -4.122440 -0.606103 -1.252389 0.000000 0.000000 0.000000 -10.626018 -6.537189 -1.438313 1.599103 7.975710 22.640232 1.602181 2.996515 -25.148358 8.332025 -16.358099 -53.749967 0.000000 0.000000 0.000000 0.000000 0.000000 0.000000 0.000000 0.000000 0.000000 0.000000 0.000000 0.000000 0.000000 0.000000 0.000000 0.383813 2.304153 1.589116 -0.138960 3.077969 -0.085475 -0.429431 1.536093 -0.949236 3.190735 1.451723 -14.010892 -1.805094 1.901978 32.289893 -0.968629 1.006155 13.211553 0.000000 0.000000 0.000000 -1.892805 -2.866584 -53.551588 116.833414 -57.096298 83.011853 19.118673 -83.705945 22.509728 0.000000 0.000000 0.000000 -7.125000 0.000000 0.000000 -6.139523 6.411125 -5.447726 0.000000 0.000000 0.000000 -19.673946 -14.493299 66.369543 -126.087212 -54.456171 -90.670516 -24.600619 31.708875 40.744779 0.000000 0.000000 0.000000 7.125000 0.000000 0.000000 19.036485 72.666002 -12.626944
